<svg width="27" height="20" viewBox="0 0 27 20" fill="none" xmlns="http://www.w3.org/2000/svg">
<g clip-path="url(#clip0)">
<path d="M5.14693 9.00539C7.25631 8.39999 9.49224 8.39999 11.6016 9.00539C11.7915 9.07026 12.0024 8.94053 12.0657 8.74593C12.129 8.55134 12.0024 8.33512 11.8126 8.29188C9.57662 7.64323 7.19302 7.64323 4.95709 8.29188C4.76724 8.35674 4.64068 8.55134 4.70396 8.76755C4.74615 8.94053 4.93599 9.07026 5.14693 9.00539Z" fill="#1F5BFF"/>
<path d="M5.14693 6.41078C7.25631 5.80538 9.49224 5.80538 11.6016 6.41078C11.7915 6.47565 12.0024 6.34592 12.0657 6.15132C12.129 5.95673 12.0024 5.74051 11.8126 5.69727C9.57662 5.04862 7.19302 5.04862 4.95709 5.69727C4.76724 5.76214 4.64068 5.95673 4.70396 6.17295C4.74615 6.36754 4.93599 6.47565 5.14693 6.41078Z" fill="#1F5BFF"/>
<path d="M5.14693 3.83785C7.25631 3.23244 9.49224 3.23244 11.6016 3.83785C11.7915 3.90271 12.0024 3.77298 12.0657 3.57839C12.129 3.38379 12.0024 3.16758 11.8126 3.12433C9.57662 2.47569 7.19302 2.47569 4.95709 3.12433C4.76724 3.1892 4.64068 3.38379 4.70396 3.60001C4.74615 3.77298 4.93599 3.88109 5.14693 3.83785Z" fill="#1F5BFF"/>
<path d="M5.14693 11.6C7.25631 10.9946 9.49224 10.9946 11.6016 11.6C11.7915 11.6648 12.0024 11.5351 12.0657 11.3405C12.129 11.1459 12.0024 10.9297 11.8126 10.8865C9.57662 10.2378 7.19302 10.2378 4.95709 10.8865C4.76724 10.9513 4.64068 11.1459 4.70396 11.3621C4.74615 11.5351 4.93599 11.6648 5.14693 11.6Z" fill="#1F5BFF"/>
<path d="M5.14693 14.1946C7.25631 13.5892 9.49224 13.5892 11.6016 14.1946C11.7915 14.2595 12.0024 14.1297 12.0657 13.9351C12.129 13.7405 12.0024 13.5243 11.8126 13.4811C9.57662 12.8324 7.19302 12.8324 4.95709 13.4811C4.76724 13.5459 4.64068 13.7405 4.70396 13.9568C4.74615 14.1297 4.93599 14.2378 5.14693 14.1946Z" fill="#1F5BFF"/>
<path d="M15.3985 9.00539C17.5079 8.39999 19.7438 8.39999 21.8532 9.00539C22.043 9.07026 22.254 8.94053 22.3173 8.74593C22.3805 8.55134 22.254 8.33512 22.0641 8.29188C19.8282 7.64323 17.4446 7.64323 15.2087 8.29188C15.0188 8.35674 14.8923 8.55134 14.9555 8.76755C15.0188 8.94053 15.2087 9.07026 15.3985 9.00539Z" fill="#1F5BFF"/>
<path d="M15.3985 6.41078C17.5079 5.80538 19.7438 5.80538 21.8532 6.41078C22.043 6.47565 22.254 6.34592 22.3173 6.15132C22.3805 5.95673 22.254 5.74051 22.0641 5.69727C19.8282 5.04862 17.4446 5.04862 15.2087 5.69727C15.0188 5.76214 14.8923 5.95673 14.9555 6.17295C15.0188 6.36754 15.2087 6.47565 15.3985 6.41078Z" fill="#1F5BFF"/>
<path d="M15.3985 3.83785C17.5079 3.23244 19.7438 3.23244 21.8532 3.83785C22.043 3.90271 22.254 3.77298 22.3173 3.57839C22.3805 3.38379 22.254 3.16758 22.0641 3.12433C19.8282 2.47569 17.4446 2.47569 15.2087 3.12433C15.0188 3.1892 14.8923 3.38379 14.9555 3.60001C15.0188 3.77298 15.2087 3.88109 15.3985 3.83785Z" fill="#1F5BFF"/>
<path d="M15.3985 11.6C17.5079 10.9946 19.7438 10.9946 21.8532 11.6C22.043 11.6648 22.254 11.5351 22.3173 11.3405C22.3805 11.1459 22.254 10.9297 22.0641 10.8865C19.8282 10.2378 17.4446 10.2378 15.2087 10.8865C15.0188 10.9513 14.8923 11.1459 14.9555 11.3621C15.0188 11.5351 15.2087 11.6648 15.3985 11.6Z" fill="#1F5BFF"/>
<path d="M22.0641 13.4594C19.8282 12.8108 17.4446 12.8108 15.2087 13.4594C15.0188 13.5243 14.8923 13.7189 14.9555 13.9351C15.0188 14.1297 15.2087 14.2378 15.3985 14.1946C17.5079 13.5892 19.7438 13.5892 21.8532 14.1946C22.043 14.2594 22.254 14.1297 22.3173 13.9351C22.3805 13.7189 22.254 13.5243 22.0641 13.4594Z" fill="#1F5BFF"/>
<path d="M25.6712 2.73513H24.1313V1.58918C24.1313 1.45945 24.068 1.32972 23.9415 1.26486C23.8571 1.22161 21.811 0.0108026 18.6258 0.0108026C16.854 -0.010819 15.1032 0.37837 13.5001 1.15675C11.8969 0.37837 10.1462 -0.010819 8.37428 0.0108026C5.16803 0.0108026 3.14303 1.22161 3.05866 1.26486C2.95319 1.32972 2.86881 1.45945 2.86881 1.58918V2.73513H1.32897C1.11803 2.73513 0.94928 2.9081 0.94928 3.12432V18.6703C0.94928 18.8865 1.11803 19.0378 1.30787 19.0595H11.6649C11.8337 19.6216 12.3188 19.9892 12.8883 19.9892H14.0696C14.6391 19.9892 15.1243 19.6 15.293 19.0595H25.6501C25.861 19.0595 26.0087 18.8865 26.0298 18.6919V3.12432C26.0298 2.9081 25.8821 2.73513 25.6712 2.73513ZM23.393 1.82702V16.5297C21.8954 15.8811 20.2712 15.5351 18.6258 15.5567C16.9805 15.5351 15.3774 15.8811 13.8587 16.5297V1.82702C15.3563 1.11351 16.9805 0.767559 18.6258 0.767559C20.2712 0.767559 21.9165 1.13513 23.393 1.82702ZM3.60709 1.82702C5.10475 1.11351 6.72897 0.767559 8.37428 0.767559C10.0196 0.745938 11.6438 1.11351 13.1415 1.82702V16.5297C11.6438 15.8811 10.0196 15.5351 8.37428 15.5567C6.72897 15.5351 5.12584 15.8811 3.60709 16.5297V1.82702ZM25.2915 18.2811H14.9977C14.7868 18.2811 14.6391 18.454 14.618 18.6703C14.618 18.973 14.3649 19.2324 14.0696 19.2324H12.8883C12.593 19.2324 12.3399 18.973 12.3399 18.6703C12.3399 18.454 12.1712 18.3027 11.9602 18.2811H1.70865V3.49188H2.86881V17.1351C2.86881 17.4378 3.18522 17.6108 3.41725 17.4595C3.43834 17.4378 5.35787 16.3135 8.37428 16.3135C11.3696 16.3135 13.3102 17.4595 13.3313 17.4595C13.4368 17.5243 13.6055 17.5243 13.711 17.4595C13.7321 17.4378 15.6516 16.3135 18.668 16.3135C21.6633 16.3135 23.604 17.4595 23.6251 17.4595C23.8782 17.6108 24.1735 17.4162 24.1735 17.1351V3.49188H25.3337L25.2915 18.2811Z" fill="#1F5BFF"/>
</g>
<defs>
<clipPath id="clip0">
<rect width="27" height="20" fill="white"/>
</clipPath>
</defs>
</svg>
